/* XPM */
static char *lukercoin_3_64x64[] = {
/* columns rows colors chars-per-pixel */
"64 64 103 2 ",
"   c #000000",
".  c #0D0D0D",
"X  c #131313",
"o  c gray10",
"O  c #242424",
"+  c #2C2C2C",
"@  c gray23",
"#  c #0F4B0F",
"$  c #005400",
"%  c #075907",
"&  c #0B5B0B",
"*  c #124D12",
"=  c #165016",
"-  c #1A541A",
";  c #1F581F",
":  c #146214",
">  c #1D671D",
",  c #235B23",
"<  c #295F29",
"1  c #246C24",
"2  c #2A612A",
"3  c #296C29",
"4  c #2D722D",
"5  c #326532",
"6  c #366C36",
"7  c #396A39",
"8  c #337233",
"9  c #367936",
"0  c #3C713C",
"q  c #4A4A4A",
"w  c #545454",
"e  c #427242",
"r  c #447E44",
"t  c #497749",
"y  c #4B7D4B",
"u  c #527E52",
"i  c #646464",
"p  c #448244",
"a  c #4A864A",
"s  c #4F894F",
"d  c #548454",
"f  c #548954",
"g  c #5C855C",
"h  c #5B8C5B",
"j  c #5A915A",
"k  c #638B63",
"l  c #698E69",
"z  c #659465",
"x  c #679967",
"c  c #6B916B",
"v  c #6C9C6C",
"b  c #729672",
"n  c #729D72",
"m  c #7C9E7C",
"M  c #73A173",
"N  c #7CA47C",
"B  c #7EA97E",
"V  c #858585",
"C  c #8A8A8A",
"Z  c #809F80",
"A  c #9A9A9A",
"S  c #83A283",
"D  c #84AC84",
"F  c #88A688",
"G  c #8AAD8A",
"H  c #8BB18B",
"J  c #91AC91",
"K  c #92B392",
"L  c #96B896",
"P  c #9AB69A",
"I  c #9BBC9B",
"U  c gray64",
"Y  c #AEAEAE",
"T  c #A5BCA5",
"R  c #A9BFA9",
"E  c gray",
"W  c #A5C1A5",
"Q  c #ABC3AB",
"!  c #AEC8AE",
"~  c #B1C4B1",
"^  c #B5CAB5",
"/  c #BBCDBB",
"(  c #BCD2BC",
")  c gray77",
"_  c #CDCDCD",
"`  c #C3D2C3",
"'  c #C5D8C5",
"]  c #C9D6C9",
"[  c #CEDDCE",
"{  c #D2D2D2",
"}  c #D2DED2",
"|  c #D9D9D9",
" . c #D4E1D4",
".. c #DCE4DC",
"X. c #DEE9DE",
"o. c #E1E1E1",
"O. c #E4EBE4",
"+. c gray92",
"@. c #EDF2ED",
"#. c #F1F3F1",
"$. c #F7F9F7",
"%. c #FFFFFF",
"&. c None",
/* pixels */
"&.&.&.&.&.&.&.&.&.&.&.&.&.&.&.&.&.&.&.&.&.&.&.&.&.&.&.&.&.&.&.&.&.&.&.&.&.&.&.&.&.&.&.&.&.&.&.&.&.&.&.&.&.&.&.&.&.&.&.&.&.&.&.&.",
"&.&.&.&.&.&.&.&.&.&.&.&.&.&.&.&.&.&.&.&.&.&.&.&.&.                            &.&.&.&.&.&.&.&.&.&.&.&.&.&.&.&.&.&.&.&.&.&.&.&.&.",
"&.&.&.&.&.&.&.&.&.&.&.&.&.&.&.&.&.&.&.&.&.&.              . X X X X .               &.&.&.&.&.&.&.&.&.&.&.&.&.&.&.&.&.&.&.&.&.&.",
"&.&.&.&.&.&.&.&.&.&.&.&.&.&.&.&.&.&.&.          X @ i C A E _ _ _ _ E A V i @ X           &.&.&.&.&.&.&.&.&.&.&.&.&.&.&.&.&.&.&.",
"&.&.&.&.&.&.&.&.&.&.&.&.&.&.&.&.&.        o w A { #.%.%.%.%.%.%.%.%.%.%.%.%.#._ A w o         &.&.&.&.&.&.&.&.&.&.&.&.&.&.&.&.&.",
"&.&.&.&.&.&.&.&.&.&.&.&.&.&.&.&.      + V { $.%.%.%.%.%.%.%.%.%.%.%.%.%.%.%.%.%.%.$.{ V +       &.&.&.&.&.&.&.&.&.&.&.&.&.&.&.&.",
"&.&.&.&.&.&.&.&.&.&.&.&.&.&.      + C o.%.%.%.%.%.%.%.%.%.%.%.%.%.%.%.%.%.%.%.%.%.%.%.%.o.C O       &.&.&.&.&.&.&.&.&.&.&.&.&.&.",
"&.&.&.&.&.&.&.&.&.&.&.&.&.    . i | %.%.%.%.%.%.%.%.%.%.%.%.%.%.%.%.%.%.%.%.%.%.%.%.%.%.%.%.| i .     &.&.&.&.&.&.&.&.&.&.&.&.&.",
"&.&.&.&.&.&.&.&.&.&.&.      + U $.%.%.%.%.%.%.%.%.%.%.%.%.%.%.%.%.%.%.%.%.%.%.%.%.%.%.%.%.%.%.$.Y +       &.&.&.&.&.&.&.&.&.&.&.",
"&.&.&.&.&.&.&.&.&.&.      q { %.%.%.%.%.%.%.%.%.%.%.%.%.%.%.%.%.%.%.%.%.%.%.%.%.%.%.%.%.%.%.%.%.%.{ q       &.&.&.&.&.&.&.&.&.&.",
"&.&.&.&.&.&.&.&.&.      i +.%.%.%.%.%.%.%.%.%.%.%.%.%.%.%.%.%.%.%.%.%.%.%.%.%.%.%.%.%.%.%.%.%.%.%.%.+.i       &.&.&.&.&.&.&.&.&.",
"&.&.&.&.&.&.&.&.      i +.%.%.%.%.%.%.%.%.%.%.%.%.%.%.%.%.%.%.%.%.%.%.%.%.%.%.%.%.%.%.%.%.%.%.%.%.%.%.#.i       &.&.&.&.&.&.&.&.",
"&.&.&.&.&.&.&.&.    i +.%.%.%.%.%.%.%.%.%.%.%.%.%.%.%.%.%.%.%.%.%.%.%.%.%.%.%.%.%.%.%.%.%.%.%.%.%.%.%.%.+.i     &.&.&.&.&.&.&.&.",
"&.&.&.&.&.&.&.    q +.%.%.%.%.%.%.%.%.%.%.%.%.%.%.%.%.%.%.%.%.%.%.%.%.%.%.%.%.%.%.%.%.%.%.%.%.%.%.%.%.%.%.+.q     &.&.&.&.&.&.&.",
"&.&.&.&.&.&.    O { %.%.%.%.%.%.%.%.%.%.%.%.%.%.%.%.%.%.%.%.%.%.%.%.%.%.%.%.%.%.%.%.%.%.%.%.%.%.%.%.%.%.%.%.{ O     &.&.&.&.&.&.",
"&.&.&.&.&.&.  . U %.%.%.%.%.%.%.%.%.%.%.%.%.%.%.%.%.%.%.%.%.%.%.%.%.%.%.%.%.%.%.%.%.%.%.%.%.%.%.%.%.%.%.%.%.%.U .     &.&.&.&.&.",
"&.&.&.&.&.    i $.%.%.%.%.%.%.%.%.%.%.%.%.%.%.%.%.%.%.%.%.%.%.%.%.%.%.%.%.%.%.%.%.%.%.%.%.%.%.%.%.%.%.%.%.%.%.$.i     &.&.&.&.&.",
"&.&.&.&.    + | %.%.%.%.%.%.%.%.%.%.%.%.%.%.%.%.%.%.%.%.%.%.%.%.%.%.%.%.%.%.%.%.%.%.%.%.%.%.%.%.%.%.%.%.%.%.%.%.{ O     &.&.&.&.",
"&.&.&.&.    C %.%.%.%.%.%.%.%.%.%.%.%.%.%.%.%.%.%.%.%.%.%.%.%.%.%.%.%.%.%.%.%.%.%.%.%.%.%.%.%.%.%.%.%.%.%.%.%.%.%.C     &.&.&.&.",
"&.&.&.    + o.%.%.%.%.%.%.%.%.%.%.%.%.%.%.%.%.%.$.$.%.%.%.%.%.%.%.%.%.%.%.%.%.%.%.%.%.%.%.%.%.%.%.%.%.%.%.%.%.%.%.o.+     &.&.&.",
"&.&.&.    V %.%.%.%.%.%.%.%.%.%.%.%.%.%.%.%.@.~ u b | %.%.%.%.%.%.%.%.%.%.%.%.%.%.%.%.%.%.%.%.%.%.%.%.%.%.%.%.%.%.%.V     &.&.&.",
"&.&.&.  o { %.%.%.%.%.%.%.%.%.%.%.%.%.%.O.R g - # # 5 N } %.%.%.%.%.%.%.%.%.%.%.%.%.%.%.%.%.%.%.%.%.%.%.%.%.%.%.%.%.{ o   &.&.&.",
"&.&.    w $.%.%.%.%.%.%.%.%.%.%.%.%.X.T G / ` Z k k F P b F } $.%.%.%.%.%.%.%.%.%.%.%.%.%.%.%.%.%.%.%.%.%.%.%.%.%.%.$.w     &.&.",
"&.&.    A %.%.%.%.%.%.%.%.%.%.%.} S b ) $.%.%.%.%.%.%.%.#.^ m N ` $.%.%.%.%.%.%.%.%.%.%.%.%.%.%.%.%.%.%.%.%.%.%.%.%.%.A     &.&.",
"&.&.  X _ %.%.%.%.%.%.%.%.%.} N 5 * m %.%.%.%.%.%.O.~ F b b J ~ k h ^ #.%.%.%.%.%.%.%.%.%.%.%.%.%.%.%.%.%.%.%.%.%.%.%._ X   &.&.",
"&.    @ #.%.%.%.%.%.%.%.%.O.e * * * l %.%.%.%.$.T e - * - g I S 1 $ % r P O.%.%.%.%.%.%.%.%.%.%.%.%.%.%.%.%.%.%.%.%.%.#.@     &.",
"&.    i %.%.%.%.%.%.%.%.%.@.x 8 ; * G %.%.%.%.T ; * * t P K 9 $ $ $ $ $ % 3 n ` +.%.%.%.%.%.%.%.%.%.%.%.%.%.%.%.%.%.%.%.i     &.",
"&.    V %.%.%.%.%.%.%.%.%.@.M v j 6 g ] %.%.+.e * 7 G T f % $ $ $ $ $ $ % p N b m J ` +.%.%.%.%.%.%.%.%.%.%.%.%.%.%.%.%.C     &.",
"&.    A %.%.%.%.%.%.%.%.%.@.M v v n s p F X...e b ~ x : $ $ $ $ $ $ $ 4 N m 7 R @.^ F b G ` O.%.%.%.%.%.%.%.%.%.%.%.%.%.U     &.",
"&.  . E %.%.%.%.%.%.%.%.%.@.M v n v M x f h G Q D 1 $ $ $ $ $ $ $ : x F t - ; ` %.%.%.O./ g 7 c T  .$.%.%.%.%.%.%.%.%.%.) .   &.",
"&.  X _ %.%.%.%.%.%.%.%.%.@.M v n v M M M v h 8 % $ $ $ $ $ $ % a F g ; * * k #.%.%.%.%.$.g * * = 2 T %.%.%.%.%.%.%.%.%._ X   &.",
"&.  X _ %.%.%.%.%.%.%.%.%.@.M v v n n M M M M 1 $ $ $ $ $ $ 4 N b < * * - k ..%.%.%.%.%.$.u * - = * P %.%.%.%.%.%.%.%.%._ X   &.",
"&.  . _ %.%.%.%.%.%.%.%.%.@.D v v M M n M M M 1 $ $ $ $ % f ^ c 7 5 e k ~ @.%.%.%.%.%.%.@.l < < = - W %.%.%.%.%.%.%.%.%._ X   &.",
"&.  X _ %.%.%.%.%.%.%.%.%.%.O.W M v v M M M M 1 $ $ $ $ 1 c N T } O.@.$.%.%.%.%.%.%.$.` c y 0 , = - Q %.%.%.%.%.%.%.%.%._ X   &.",
"&.  . E %.%.%.%.%.%.%.%.%.%.%.%. .I M M M M M 1 $ $ $ $ 4 N M c b T O.%.$.` T ~ ..O.F g k y 2 = = - Q %.%.%.%.%.%.%.%.%.) .   &.",
"&.    U %.%.%.%.%.%.%.%.%.%.%.%.%.$.' H M M M 1 $ $ $ $ 4 N D D S b c S u ; * - 7 g l x f 0 , = = - T %.%.%.%.%.%.%.%.%.U     &.",
"&.    V %.%.%.%.%.%.%.%.%.%.%.%.%.%.%.O.^ G M > $ $ $ $ 1 B B B D D G B k 5 - , g n x x s 0 < = = - Q %.%.%.%.%.%.%.%.%.C     &.",
"&.    i %.%.%.%.%.%.%.%.%.%.%.%.%.%.%.%.%.X.Q 9 $ $ $ $ 1 B D D D G D H H H m m n x x x f 0 ; = = - W %.%.%.%.%.%.%.%.%.i     &.",
"&.    @ +.%.%.%.%.%.%.%.%.%.%.%.%.%.%.%.%.%.%. .x : $ $ 1 B D B D D G D H H F v x x x z u 2 = * , b O.%.%.%.%.%.%.%.%.#.@     &.",
"&.&.  X { %.%.%.%.%.%.%.%.%.%.%.%.%.%.%.%.%.%.%.$.` j & > M B D D D D G G H D v x x x h 0 , = t ^ %.%.%.%.%.%.%.%.%.%.{ X   &.&.",
"&.&.    A %.%.%.%.%.%.%.%.%.%.%.%.%.%.%.%.%.%.%.%.%.$.( M D B D D D D D G D D v x x j a 2 < S O.%.%.%.%.%.%.%.%.%.%.%.A     &.&.",
"&.&.    w $.%.%.%.%.%.%.%.%.%.%.%.%.%.%.%.%.%.%.%.%.%.%.%. .Q H D G D H G G D M x x s 5 u / %.%.%.%.%.%.%.%.%.%.%.%.$.w     &.&.",
"&.&.&.  o _ %.%.%.%.%.%.%.%.%.%.%.%.%.%.%.%.%.%.%.%.%.%.%.%.$.X.^ L H D H G D v x f y K @.%.%.%.%.%.%.%.%.%.%.%.%.%.{ o   &.&.&.",
"&.&.&.    V %.%.%.%.%.%.%.%.%.%.%.%.%.%.%.%.%.%.%.%.%.%.%.%.%.%.%.@.' W K H D x z m ] %.%.%.%.%.%.%.%.%.%.%.%.%.%.%.V     &.&.&.",
"&.&.&.    + o.%.%.%.%.%.%.%.%.%.%.%.%.%.%.%.%.%.%.%.%.%.%.%.%.%.%.%.%.@.[ ! K B ^ #.%.%.%.%.%.%.%.%.%.%.%.%.%.%.%.o.+     &.&.&.",
"&.&.&.&.    C %.%.%.%.%.%.%.%.%.%.%.%.%.%.%.%.%.%.%.%.%.%.%.%.%.%.%.%.%.%.$.X.X.%.%.%.%.%.%.%.%.%.%.%.%.%.%.%.%.%.C     &.&.&.&.",
"&.&.&.&.    + | %.%.%.%.%.%.%.%.%.%.%.%.%.%.%.%.%.%.%.%.%.%.%.%.%.%.%.%.%.%.%.%.%.%.%.%.%.%.%.%.%.%.%.%.%.%.%.%.{ O     &.&.&.&.",
"&.&.&.&.&.    i $.%.%.%.%.%.%.%.%.%.%.%.%.%.%.%.%.%.%.%.%.%.%.%.%.%.%.%.%.%.%.%.%.%.%.%.%.%.%.%.%.%.%.%.%.%.%.%.i     &.&.&.&.&.",
"&.&.&.&.&.&.  X Y %.%.%.%.%.%.%.%.%.%.%.%.%.%.%.%.%.%.%.%.%.%.%.%.%.%.%.%.%.%.%.%.%.%.%.%.%.%.%.%.%.%.%.%.%.%.Y X     &.&.&.&.&.",
"&.&.&.&.&.&.    + { %.%.%.%.%.%.%.%.%.%.%.%.%.%.%.%.%.%.%.%.%.%.%.%.%.%.%.%.%.%.%.%.%.%.%.%.%.%.%.%.%.%.%.%.{ +     &.&.&.&.&.&.",
"&.&.&.&.&.&.&.    q +.%.%.%.%.%.%.%.%.%.%.%.%.%.%.%.%.%.%.%.%.%.%.%.%.%.%.%.%.%.%.%.%.%.%.%.%.%.%.%.%.%.%.+.q     &.&.&.&.&.&.&.",
"&.&.&.&.&.&.&.&.    i +.%.%.%.%.%.%.%.%.%.%.%.%.%.%.%.%.%.%.%.%.%.%.%.%.%.%.%.%.%.%.%.%.%.%.%.%.%.%.%.%.#.i     &.&.&.&.&.&.&.&.",
"&.&.&.&.&.&.&.&.    . i +.%.%.%.%.%.%.%.%.%.%.%.%.%.%.%.%.%.%.%.%.%.%.%.%.%.%.%.%.%.%.%.%.%.%.%.%.%.%.+.i       &.&.&.&.&.&.&.&.",
"&.&.&.&.&.&.&.&.&.      i +.%.%.%.%.%.%.%.%.%.%.%.%.%.%.%.%.%.%.%.%.%.%.%.%.%.%.%.%.%.%.%.%.%.%.%.%.+.i       &.&.&.&.&.&.&.&.&.",
"&.&.&.&.&.&.&.&.&.&.      q _ %.%.%.%.%.%.%.%.%.%.%.%.%.%.%.%.%.%.%.%.%.%.%.%.%.%.%.%.%.%.%.%.%.%.{ q       &.&.&.&.&.&.&.&.&.&.",
"&.&.&.&.&.&.&.&.&.&.&.      O U $.%.%.%.%.%.%.%.%.%.%.%.%.%.%.%.%.%.%.%.%.%.%.%.%.%.%.%.%.%.%.%.Y +       &.&.&.&.&.&.&.&.&.&.&.",
"&.&.&.&.&.&.&.&.&.&.&.&.&.    . i | %.%.%.%.%.%.%.%.%.%.%.%.%.%.%.%.%.%.%.%.%.%.%.%.%.%.%.%.{ i .     &.&.&.&.&.&.&.&.&.&.&.&.&.",
"&.&.&.&.&.&.&.&.&.&.&.&.&.&.      + C o.%.%.%.%.%.%.%.%.%.%.%.%.%.%.%.%.%.%.%.%.%.%.%.%.o.C O       &.&.&.&.&.&.&.&.&.&.&.&.&.&.",
"&.&.&.&.&.&.&.&.&.&.&.&.&.&.&.        + V { $.%.%.%.%.%.%.%.%.%.%.%.%.%.%.%.%.%.%.$.{ V +         &.&.&.&.&.&.&.&.&.&.&.&.&.&.&.",
"&.&.&.&.&.&.&.&.&.&.&.&.&.&.&.&.&.        o w A { #.%.%.%.%.%.%.%.%.%.%.%.%.+.{ A w o         &.&.&.&.&.&.&.&.&.&.&.&.&.&.&.&.&.",
"&.&.&.&.&.&.&.&.&.&.&.&.&.&.&.&.&.&.&.          X @ i V U ) _ _ _ _ ) U C i @ X           &.&.&.&.&.&.&.&.&.&.&.&.&.&.&.&.&.&.&.",
"&.&.&.&.&.&.&.&.&.&.&.&.&.&.&.&.&.&.&.&.&.&.              . X X X X .               &.&.&.&.&.&.&.&.&.&.&.&.&.&.&.&.&.&.&.&.&.&.",
"&.&.&.&.&.&.&.&.&.&.&.&.&.&.&.&.&.&.&.&.&.&.&.&.&.                            &.&.&.&.&.&.&.&.&.&.&.&.&.&.&.&.&.&.&.&.&.&.&.&.&.",
"&.&.&.&.&.&.&.&.&.&.&.&.&.&.&.&.&.&.&.&.&.&.&.&.&.&.&.&.&.&.&.&.&.&.&.&.&.&.&.&.&.&.&.&.&.&.&.&.&.&.&.&.&.&.&.&.&.&.&.&.&.&.&.&."
};
