/* XPM */
static char *lukercoin_4_32x32[] = {
/* columns rows colors chars-per-pixel */
"32 32 194 2 ",
"   c black",
".  c gray3",
"X  c #0B0B0B",
"o  c #0C0C0C",
"O  c #191919",
"+  c gray10",
"@  c #202020",
"#  c gray13",
"$  c gray14",
"%  c #282828",
"&  c gray16",
"*  c #005300",
"=  c #015301",
"-  c #005500",
";  c #015501",
":  c #035603",
">  c #055805",
",  c #095A09",
"<  c #0F5F0F",
"1  c #175117",
"2  c #1B551B",
"3  c #196519",
"4  c #215921",
"5  c #215A21",
"6  c #215B21",
"7  c #225A22",
"8  c #285D28",
"9  c #285E28",
"0  c #276F27",
"q  c #2E632E",
"w  c #2A712A",
"e  c #2F732F",
"r  c #326532",
"t  c #336633",
"y  c #346A34",
"u  c #346C34",
"i  c #396A39",
"p  c #357635",
"a  c #3A783A",
"s  c #444444",
"d  c #5D5D5D",
"f  c gray37",
"g  c #5F5F5F",
"h  c #407C40",
"j  c #477847",
"k  c #477B47",
"l  c #4A794A",
"z  c #4B7E4B",
"x  c #4C7F4C",
"c  c #507B50",
"v  c #606060",
"b  c gray38",
"n  c #626262",
"m  c #6F6F6F",
"M  c gray44",
"N  c #478147",
"B  c #468346",
"V  c #498549",
"C  c #4B864B",
"Z  c #4D804D",
"A  c #4E864E",
"S  c #4E884E",
"D  c #568256",
"F  c #508950",
"G  c #528852",
"H  c #5E8F5E",
"J  c #608F60",
"K  c #648C64",
"L  c #658F65",
"P  c #668C66",
"I  c #698E69",
"U  c #629262",
"Y  c #639763",
"T  c #659465",
"R  c #649664",
"E  c #669766",
"W  c #6D916D",
"Q  c #689A68",
"!  c #6B9B6B",
"~  c #6F9B6F",
"^  c #6D9D6D",
"/  c #6E9D6E",
"(  c #6F9E6F",
")  c #789B78",
"_  c #799B79",
"`  c #799F79",
"'  c #71A071",
"]  c #75A275",
"[  c #77A377",
"{  c #77A477",
"}  c #78A478",
"|  c #7BA67B",
" . c #7CA57C",
".. c #7CA77C",
"X. c #7FA57F",
"o. c gray62",
"O. c #83A283",
"+. c #80A780",
"@. c #82A582",
"#. c #84A284",
"$. c #82AB82",
"%. c #83AB83",
"&. c #84AC84",
"*. c #86AD86",
"=. c #88A788",
"-. c #88AF88",
";. c #8DAB8D",
":. c #8EAA8E",
">. c #8FAF8F",
",. c #89B089",
"<. c #8AB18A",
"1. c #8BB18B",
"2. c #8DB38D",
"3. c #91AC91",
"4. c #90AF90",
"5. c #91AF91",
"6. c #92AE92",
"7. c #93AE93",
"8. c #94B794",
"9. c #95B895",
"0. c gray63",
"q. c #AEAEAE",
"w. c #A0B7A0",
"e. c #A1B8A1",
"r. c #A1B9A1",
"t. c #A2B9A2",
"y. c #A3BAA3",
"u. c #AABFAA",
"i. c gray75",
"p. c #A3C1A3",
"a. c #A6C3A6",
"s. c #A9C1A9",
"d. c #ADC1AD",
"f. c #B0C3B0",
"g. c #B1C4B1",
"h. c #B0CAB0",
"j. c #B6C8B6",
"k. c #B7CAB7",
"l. c #B9CAB9",
"z. c #BACBBA",
"x. c #B8CFB8",
"c. c #C0C0C0",
"v. c #CBCBCB",
"b. c gray80",
"n. c #CDCDCD",
"m. c #C1D0C1",
"M. c #C3D2C3",
"N. c #C5D3C5",
"B. c #C7D7C7",
"V. c #C7D9C7",
"C. c #C8D7C8",
"Z. c #CAD9CA",
"A. c #CBD8CB",
"S. c #CBD9CB",
"D. c #CBDCCB",
"F. c #CDDACD",
"G. c #CFDECF",
"H. c #D2DDD2",
"J. c #D3DED3",
"K. c #D3E1D3",
"L. c #D8E5D8",
"P. c #DDE6DD",
"I. c #DEE6DE",
"U. c #DFE7DF",
"Y. c #DFE8DF",
"T. c #DFEADF",
"R. c gray88",
"E. c #E1E1E1",
"W. c #E1E8E1",
"Q. c #E7EDE7",
"!. c #E9EEE9",
"~. c #E8F0E8",
"^. c #EBF1EB",
"/. c #ECF2EC",
"(. c #EFF4EF",
"). c #F2F5F2",
"_. c #F2F6F2",
"`. c #F3F6F3",
"'. c #F4F7F4",
"]. c gray97",
"[. c #F4F8F4",
"{. c #F6F9F6",
"}. c #F8F8F8",
"|. c #F8FAF8",
" X c #F9FAF9",
".X c #FAFBFA",
"XX c #FBFBFB",
"oX c #FAFCFA",
"OX c gray99",
"+X c #FCFDFC",
"@X c #FEFEFE",
"#X c #FEFFFE",
"$X c gray100",
"%X c None",
/* pixels */
"%X%X%X%X%X%X%X%X%X%X%X%X%X%X        %X%X%X%X%X%X%X%X%X%X%X%X%X%X",
"%X%X%X%X%X%X%X%X%X%X  X $ s g m m g s $ X   %X%X%X%X%X%X%X%X%X%X",
"%X%X%X%X%X%X%X%X  + g q.R.].$X$X$X$X].R.q.v +   %X%X%X%X%X%X%X%X",
"%X%X%X%X%X%X%XX g b.oX$X$X$X$X$X$X$X$X$X$X.Xv.d o %X%X%X%X%X%X%X",
"%X%X%X%X%X  @ o.].$X$X$X$X$X$X$X$X$X$X$X$X$X$X.X0.@   %X%X%X%X%X",
"%X%X%X%X  % c.$X$X$X$X$X$X$X$X$X$X$X$X$X$X$X$X$X$Xc.%   %X%X%X%X",
"%X%X%X%X@ i.$X$X$X$X$X$X$X$X$X$X$X$X$X$X$X$X$X$X$X$Xi.@ %X%X%X%X",
"%X%X%XX o.$X$X$X$X$X$X$X$X$X$X$X$X$X$X$X$X$X$X$X$X$X$Xo.X %X%X%X",
"%X%X  g ].$X$X$X$X$X$X$X$X$X$X$X$X$X$X$X$X$X$X$X$X$X$X].g   %X%X",
"%X%X+ v.$X$X$X$X$X$X$X$X].$X$X$X$X$X$X$X$X$X$X$X$X$X$X$Xv.+ %X%X",
"%X  v $X$X$X$X$X$X.XP.:.c e.!.$X$X$X$X$X$X$X$X$X$X$X$X$X.Xg   %X",
"%X. q.$X$X$X$X.XA.j.H.M.u.l.d.l.Q.$X$X$X$X$X$X$X$X$X$X$X$Xq.X %X",
"%X$ R.$X$X$X_.) 8 f.$X.Xg.P W @.N  .G..X$X$X$X$X$X$X$X$X$XR.$ %X",
"%Xs ].$X$X$X^.T u e.$Xg.t D G 3 * * p 4.N.W..X$X$X$X$X$X$X].s %X",
"  g $X$X$X$X/.} ! T >.:.H w : * < h j ) P.m.e.w.H..X$X$X$X$Xv   ",
"  m $X$X$X$X/.} ^ ' ^ A , * > e z t i m.$X$Xy.1 q Z.$X$X$X$XM   ",
"  m $X$X$X$X[.a.] ( ] B : : a =.#.w.P.$X$XQ.O.8 4 Z.$X$X$X$XM   ",
"  g $X$X$X$X$X.XK.9.] B : : G  .4.k.3.I 7.[ x 4 4 N.$X$X$X$Xv   ",
"%Xs ].$X$X$X$X$X$X[.V.R : * S %.%. .P l H T k 2 6 Z.$X$X$X.Xs %X",
"%X$ R.$X$X$X$X$X$X$X$XQ.1.0 C $.&.1.1...! U y q 4.].$X$X$XR.$ %X",
"%XX q.$X$X$X$X$X$X$X$X$X$XY.h.9.&.&.1.[ R Z K S.$X$X$X$X$Xq.X %X",
"%X  g .X$X$X$X$X$X$X$X$X$X$X$X(.G.a.2.[ ~ s._.$X$X$X$X$X.Xv   %X",
"%X%X+ v.$X$X$X$X$X$X$X$X$X$X$X$X$X[.L.x.Y.$X$X$X$X$X$X$Xv.+ %X%X",
"%X%X  v .X$X$X$X$X$X$X$X$X$X$X$X$X$X$X$X$X$X$X$X$X$X$X].g   %X%X",
"%X%X%Xo 0.$X$X$X$X$X$X$X$X$X$X$X$X$X$X$X$X$X$X$X$X$X$X0.o %X%X%X",
"%X%X%X%X@ c.$X$X$X$X$X$X$X$X$X$X$X$X$X$X$X$X$X$X$X$Xc.$ %X%X%X%X",
"%X%X%X%X  % c.$X$X$X$X$X$X$X$X$X$X$X$X$X$X$X$X$X$Xc.%   %X%X%X%X",
"%X%X%X%X%X  @ o.].$X$X$X$X$X$X$X$X$X$X$X$X$X$X].0.+   %X%X%X%X%X",
"%X%X%X%X%X%X%Xo g b..X$X$X$X$X$X$X$X$X$X$X.Xb.g o %X%X%X%X%X%X%X",
"%X%X%X%X%X%X%X%X  + v q.R.].$X$X$X$X].R.q.g +   %X%X%X%X%X%X%X%X",
"%X%X%X%X%X%X%X%X%X%X  X $ s n M M n s @ X   %X%X%X%X%X%X%X%X%X%X",
"%X%X%X%X%X%X%X%X%X%X%X%X%X%X        %X%X%X%X%X%X%X%X%X%X%X%X%X%X"
};
